<svg width="800" height="800" xmlns="http://www.w3.org/2000/svg">
 <!-- Created with Method Draw - http://github.com/duopixel/Method-Draw/ -->

 <g>
  <title>background</title>
  <rect fill="transparent" x="-1" y="-1" width="802" height="802" id="canvas_background"/>
  <g id="canvasGrid" display="none">
   <rect id="svg_1" width="100%" height="100%" x="0" y="0" stroke-width="0" fill="url(#gridpattern)"/>
  </g>
 </g>
 <g>
  <title>Layer 1</title>
  <g stroke="null" id="svg_10">
   <path stroke="null" stroke-width="0" fill="#FFFFFF" d="m609.735116,575.723124c0,9.062986 -8.003632,16.410561 -17.875843,16.410561l-388.502372,0c-9.872292,0 -17.875843,-7.347574 -17.875843,-16.410561l0,-35.009276c0,-9.062986 8.003551,-16.410561 17.875843,-16.410561l388.502372,0c9.872211,0 17.875843,7.347574 17.875843,16.410561l0,35.009276zm60.723198,-245.767226c0,-73.038082 -64.725014,-132.457514 -144.284511,-132.457514c-9.710188,0 -19.186794,0.912414 -28.360691,2.610397c14.66532,29.471185 23.252948,66.066794 23.252948,106.036472c0,37.297981 -7.495981,71.556694 -20.416693,100.001731l-39.572412,0c14.925189,-26.256957 24.237338,-61.782547 24.237338,-100.001731c0,-79.171289 -39.877554,-146.104616 -87.081765,-146.104616c-47.201857,0 -87.079331,66.961779 -87.079331,146.130834c0,38.219184 9.312149,73.718556 24.237338,99.975513l-39.565273,0c-12.920712,-28.445036 -20.423832,-62.701589 -20.423832,-100.001731c0,-40.081253 8.635254,-76.722818 23.374486,-106.237799c-8.735291,-1.531663 -17.737592,-2.382852 -26.949622,-2.382852c-79.559578,0 -144.284592,59.406398 -144.284592,132.444405c0,40.759567 20.285581,77.25887 51.933061,101.57503c-0.791374,2.772248 -1.141707,5.65838 -1.141707,8.656013l0,10.198625c0,18.889719 16.512561,34.519179 37.088843,34.519179l365.626045,0c20.576282,0 35.839959,-15.63162 35.839959,-34.519179l0,-10.198625c0,-2.649724 0.376539,-5.218559 -0.247862,-7.695483c32.374353,-24.311691 53.818273,-61.248654 53.818273,-102.548668zm-271.460699,-276.0896c-20.700253,0 -37.539295,15.45882 -37.539295,34.462274s16.839041,34.462274 37.539295,34.462274s37.539376,-15.45882 37.539376,-34.462274s-16.839122,-34.462274 -37.539376,-34.462274z" id="svg_9"/>
   <rect stroke="#FFFFFF" id="svg_7" height="9" width="157" y="423.042576" x="723.61473" stroke-width="0" fill="#FFFFFF" transform="matrix(2.383450119472011,0,0,2.18807878800241,-1511.6086982080408,-431.9803359655227) "/>
  </g>
 </g>
</svg>