<svg width="70" height="74" xmlns="http://www.w3.org/2000/svg">
 <!-- Created with Method Draw - http://github.com/duopixel/Method-Draw/ -->

 <g>
  <title>background</title>
  <rect fill="#ffffff" id="canvas_background" height="76" width="72" y="-1" x="-1"/>
  <g display="none" overflow="visible" y="0" x="0" height="100%" width="100%" id="canvasGrid">
   <rect fill="url(#gridpattern)" stroke-width="0" y="0" x="0" height="100%" width="100%"/>
  </g>
 </g>
 <g>
  <title>Layer 1</title>
  <g id="svg_10">
   <path id="svg_9" d="m35.888959,38.161269c0,0.041645 -0.033762,0.075407 -0.075407,0.075407l-1.638847,0c-0.041645,0 -0.075407,-0.033762 -0.075407,-0.075407l0,-0.160868c0,-0.041645 0.033762,-0.075407 0.075407,-0.075407l1.638847,0c0.041645,0 0.075407,0.033762 0.075407,0.075407l0,0.160868zm0.256153,-1.129306c0,-0.335612 -0.273034,-0.608646 -0.608646,-0.608646c-0.040961,0 -0.080937,0.004193 -0.119636,0.011995c0.061864,0.135421 0.098089,0.303579 0.098089,0.48724c0,0.171385 -0.031621,0.328805 -0.086125,0.45951l-0.166931,0c0.06296,-0.120651 0.102242,-0.283892 0.102242,-0.45951c0,-0.363794 -0.168218,-0.671354 -0.367343,-0.671354c-0.199115,0 -0.367333,0.307691 -0.367333,0.671475c0,0.175618 0.039282,0.338739 0.102242,0.45939l-0.166901,0c-0.054504,-0.130706 -0.086155,-0.288115 -0.086155,-0.45951c0,-0.184174 0.036427,-0.352543 0.098602,-0.488165c-0.036849,-0.007038 -0.074824,-0.010949 -0.113684,-0.010949c-0.335612,0 -0.608646,0.272974 -0.608646,0.608585c0,0.187291 0.085572,0.355006 0.219073,0.466739c-0.003338,0.012739 -0.004816,0.026 -0.004816,0.039775l0,0.046863c0,0.086799 0.069656,0.158616 0.156455,0.158616l1.542346,0c0.086799,0 0.151186,-0.071828 0.151186,-0.158616l0,-0.046863c0,-0.012176 0.001589,-0.023979 -0.001046,-0.035361c0.136567,-0.111713 0.227026,-0.281439 0.227026,-0.471214zm-1.145121,-1.268638c-0.087321,0 -0.158355,0.071033 -0.158355,0.158355s0.071033,0.158355 0.158355,0.158355s0.158355,-0.071033 0.158355,-0.158355s-0.071033,-0.158355 -0.158355,-0.158355z" fill="#FFFFFF"/>
   <rect transform="matrix(0.010054273733423933,0,0,0.010054273733423933,0,0) " fill="#FFFFFF" stroke-width="1.5" x="3403.106775" y="3758.027159" width="157" height="9" id="svg_7" stroke="#FFFFFF"/>
   <text fill="#000000" stroke-width="0" x="1311.265912" y="1806.176663" id="svg_6" font-size="24" font-family="Helvetica, Arial, sans-serif" text-anchor="start" xml:space="preserve" transform="matrix(0.027668825621548036,0,0,0.02218738291510155,-1.9492019911571958,-2.047101280605059) " font-weight="bold" font-style="normal">CSS</text>
  </g>
 </g>
</svg>