<svg width="800" height="800" xmlns="http://www.w3.org/2000/svg">
 <!-- Created with Method Draw - http://github.com/duopixel/Method-Draw/ -->

 <g>
  <title>background</title>
  <rect id="canvas_background" height="802" width="802" y="-1" x="-1" fill="none"/>
  <g display="none" id="canvasGrid">
   <rect fill="url(#gridpattern)" stroke-width="0" y="0" x="0" height="100%" width="100%" id="svg_1"/>
  </g>
 </g>
 <g>
  <title>Layer 1</title>
  <g id="svg_10" stroke="null">
   <path id="svg_9" d="m612.73512,653.72312c0,9.06299 -8.00364,16.41057 -17.87585,16.41057l-388.50237,0c-9.87229,0 -17.87584,-7.34758 -17.87584,-16.41057l0,-35.00927c0,-9.06299 8.00355,-16.41056 17.87584,-16.41056l388.50237,0c9.87221,0 17.87585,7.34757 17.87585,16.41056l0,35.00927zm60.72319,-245.76722c0,-73.03808 -64.72501,-132.45752 -144.28451,-132.45752c-9.71019,0 -19.18679,0.91242 -28.36069,2.6104c14.66532,29.47119 23.25295,66.06679 23.25295,106.03647c0,37.29798 -7.49598,71.5567 -20.41669,100.00173l-39.57242,0c14.92519,-26.25695 24.23734,-61.78254 24.23734,-100.00173c0,-79.17129 -39.87755,-146.10461 -87.08176,-146.10461c-47.20186,0 -87.07933,66.96178 -87.07933,146.13083c0,38.21918 9.31215,73.71856 24.23733,99.97551l-39.56527,0c-12.92071,-28.44503 -20.42383,-62.70159 -20.42383,-100.00173c0,-40.08125 8.63525,-76.72282 23.37449,-106.2378c-8.7353,-1.53166 -17.7376,-2.38285 -26.94963,-2.38285c-79.55957,0 -144.28459,59.4064 -144.28459,132.44441c0,40.75956 20.28558,77.25887 51.93306,101.57503c-0.79137,2.77224 -1.1417,5.65838 -1.1417,8.65601l0,10.19862c0,18.88972 16.51256,34.51918 37.08884,34.51918l365.62604,0c20.57629,0 35.83996,-15.63162 35.83996,-34.51918l0,-10.19862c0,-2.64972 0.37654,-5.21856 -0.24786,-7.69548c32.37435,-24.31169 53.81827,-61.24866 53.81827,-102.54867zm-271.4607,-276.0896c-20.70025,0 -37.53929,15.45882 -37.53929,34.46227s16.83904,34.46228 37.53929,34.46228s37.53938,-15.45882 37.53938,-34.46228s-16.83912,-34.46227 -37.53938,-34.46227z" fill="#FFFFFF" stroke-width="0" stroke="null"/>
   <rect transform="matrix(2.383450119472011,0,0,2.18807878800241,-1511.6086982080408,-431.9803359655227) " fill="#FFFFFF" stroke-width="0" x="724.87341" y="458.690287" width="157" height="9" id="svg_7" stroke="#FFFFFF"/>
  </g>
 </g>
</svg>