<svg xmlns="http://www.w3.org/2000/svg" viewBox="0 0 296 23" fill="white"><path d="M3 2.8C2.3 1 1.5.6 0 .6V.2h6.7v.4c-1.2 0-1.6.2-1.6.7 0 .7.3 1.1 6.7 18.1l6.3-16c.3-.8.6-1.6.6-2.1 0-.7-.9-.7-1.6-.7V.2h5.6l-.1.5c-1.7.1-2.2.5-2.8 2.1l-8.2 19.7c-.2.4-.3.5-.4.5-.2 0-.3-.2-.4-.4L3 2.8zM32.7 22.7H26v-.5h.1c1.8 0 1.8-1.2 1.8-3.6V6.2c0-2.4-.3-2.7-2-2.8V3H32v.5c-1.9 0-1.9.5-1.9 3.6v11.6c0 2.9.2 3.5 2.6 3.5v.5zM53.5 19.1c-1 2.3-3.3 3.9-6.8 3.9-6.1 0-9.9-4.2-9.9-10.1 0-5.5 3.8-10.2 10.3-10.2 1.9 0 3.7.4 5.8 1.2.3.1.4.2.4.5l-.2 4h-.4c0-1.1-.3-2.4-1.1-3.1-1.2-1-2.6-1.5-4.8-1.5-5.2 0-7.5 4-7.5 8.7 0 4.8 2.5 9.6 7.8 9.6 3 0 5-1.1 6-3.1.2-.4.3-.5.5-.4 0-.1.1 0-.1.5zM73.8 6.3h-.5c-.2-1.5-.3-2.1-2.7-2.1h-3.7v14.6c0 3.1.3 3.4 2.5 3.4v.5h-6.7v-.5c1.7 0 1.9-.8 1.9-2.8V4.2h-3.2c-2.6 0-3.2.1-3.2 2.1h-.5L57.6 3s2.6.2 3.8.2h8.9c1.5 0 2.8 0 3.6-.1l-.1 3.2zM87.1 23c-7 0-10-5.5-10-10.2 0-4.2 3-10.1 10.1-10.1 5.8 0 10.1 3.7 10.1 9.7 0 5.8-4 10.6-10.2 10.6zM87 3.6c-4.3 0-7.5 2.8-7.5 8.5 0 6 3.6 9.9 8.2 9.9 2.3 0 7.1-1.3 7.1-8.8.1-6.3-3.7-9.6-7.8-9.6zM119 22.7h-2.2c-2.7 0-3.7-1.8-5.1-4.2-1.2-1.9-2.5-4.7-4.2-4.8l-1.2-.1c-.1 0-.2 0-.2.2v5.1c0 3.1.5 3.2 2.6 3.2v.5H102v-.5c1.5-.1 1.9-.3 1.9-3.2V5.3c0-1.4-.8-1.8-2.3-1.8v-.4h6.8c3.7 0 6.1 1.7 6.1 4.8 0 2.6-2.1 4.7-4.4 5.5 1.9.7 3.5 5.2 5.1 6.9 1.6 1.8 2.3 1.9 3.7 1.9v.5zM108.6 13c2.4 0 3.9-1.8 3.9-4.5 0-2.9-1.8-4.5-4.4-4.5-1.5 0-1.9 0-1.9.5v8c0 .3 0 .4.5.5-.1-.1 1.2 0 1.9 0zM129.8 22.7h-6.7v-.5h.1c1.8 0 1.8-1.2 1.8-3.6V6.2c0-2.4-.3-2.7-2-2.8V3h6.1v.5c-1.9 0-1.9.5-1.9 3.6v11.6c0 2.9.2 3.5 2.6 3.5v.5zM146.6 22.2c1-.1 1.3-.3 1.3-.6s0-.4-.3-1.1l-2-5.4c-.1-.1-.1-.2-.2-.2h-5.5c-.1 0-.2.1-.3.2l-1.4 4.2c-.2.5-.5 1.5-.5 2.1 0 .6.5.8 1.6.8v.5h-5.7l.1-.5c1.7-.1 2.2-.8 2.8-2.4l5.9-16.2c.3-.9.4-.9.5-.9.1 0 .2.1.6.9l6.2 16c.6 1.6 1.2 2.5 3 2.5l.1.5h-6.2v-.4zm-1.4-8.3l-2.5-7.1c-.1-.2-.1-.3-.2-.3s-.1.1-.2.3l-2.3 7v.1c0 .1.1.1.1.1l5.1-.1c-.1.1 0 .1 0 0zM155.8 3.2c0 1.7-1.3 2.9-3.2 3.3V6c1.5-.2 2.1-1.2 2.1-1.8 0-.6-.3-1-1.2-1.5-.6-.3-.9-.5-.9-1.1 0-.6.5-1 1.1-1 1.1.1 2.1 1 2.1 2.6zM164.9 23c-1.6 0-3-.1-4.7-1.1v-3.8h.5c.1 2.9 2 3.9 4.4 3.9 2.7 0 4.1-1.7 4.1-3.4 0-2.1-1.2-3.3-4-5.1-3.7-2.4-4.7-4.1-4.7-6 0-2.7 2.1-4.8 5.5-4.8 1.8 0 3.1.3 4.3.8v3.1h-.5c-.1-.5-.2-1.1-.5-1.7-.2-.3-.9-1.4-3.6-1.4-2 0-3.5 1.3-3.5 3.1 0 1.7 1.3 2.8 4.4 4.8 3 2 4.4 3.9 4.5 6-.1 3.3-2.5 5.6-6.2 5.6zM187.2 21.8v-4h.5c.2 3.4 2.5 4.4 5.2 4.4 3.1 0 4.8-2 4.8-4.1 0-2.4-1.5-3.8-4.7-5.8-4.3-2.7-5.3-4.8-5.3-6.8 0-3.1 2.4-5.4 6.4-5.4 2.2 0 4.7.9 4.7.9v3.4h-.5c-.1-.6-.2-1.2-.6-1.8-.2-.4-1.2-1.7-4.2-1.7-2.4 0-4.1 1.5-4.1 3.7 0 2.1 1.6 3.3 5.1 5.7 3.4 2.3 5.1 4.5 5.1 6.8 0 5.7-5.7 6.1-7.1 6.1-3.5-.2-5.3-1.4-5.3-1.4zM217.7 19.2l-.1 3.5h-13v-.5c1.3 0 1.9-.4 1.9-2.9v-14c0-1.2-.8-1.7-2.3-1.7v-.5c1.1.1 2.6.1 4 .1h5.5c.5 0 3.2-.1 3.2-.1l-.1 3.3h-.5c-.1-2.1-1.3-2.2-3.7-2.2h-3.8c-.3 0-.3.1-.3.3v7.1c0 .1 0 .3.2.3h4.6c.9 0 1.2-.3 1.3-1.1h.5v4.1h-.5c-.1-.9-.1-1.8-1.5-1.9-.8-.1-4-.1-4.4-.1-.1 0-.2.1-.2.2v7.5c.1 1.4.1 1.4 3.4 1.4 1.1 0 3.4 0 4-.3.8-.4 1-1.1 1.1-2.2h.7zM238.5 19.1c-1 2.3-3.3 3.9-6.8 3.9-6.1 0-9.9-4.2-9.9-10.1 0-5.5 3.8-10.2 10.3-10.2 1.9 0 3.7.4 5.8 1.2.3.1.4.2.4.5l-.2 4h-.4c0-1.1-.3-2.4-1.1-3.1-1.2-1-2.6-1.5-4.8-1.5-5.2 0-7.5 4-7.5 8.7 0 4.8 2.5 9.6 7.8 9.6 3 0 5-1.1 6-3.1.2-.4.3-.5.5-.4.1-.1.1 0-.1.5zM260 22.7h-2.2c-2.7 0-3.7-1.8-5.1-4.2-1.2-1.9-2.5-4.7-4.2-4.8l-1.2-.1c-.1 0-.2 0-.2.2v5.1c0 3.1.5 3.2 2.6 3.2v.5H243v-.5c1.5-.1 1.9-.3 1.9-3.2V5.3c0-1.4-.8-1.8-2.3-1.8v-.4h6.8c3.7 0 6.1 1.7 6.1 4.8 0 2.6-2.1 4.7-4.4 5.5 1.9.7 3.5 5.2 5.1 6.9 1.6 1.8 2.3 1.9 3.7 1.9v.5zM249.6 13c2.4 0 3.9-1.8 3.9-4.5 0-2.9-1.8-4.5-4.4-4.5-1.5 0-1.9 0-1.9.5v8c0 .3 0 .4.5.5-.1-.1 1.2 0 1.9 0zM276.1 19.2l-.1 3.5h-13v-.5c1.3 0 1.9-.4 1.9-2.9v-14c0-1.2-.8-1.7-2.3-1.7v-.5c1.1.1 2.6.1 4 .1h5.6c.5 0 3.2-.1 3.2-.1l-.1 3.3h-.5c-.1-2.1-1.3-2.2-3.7-2.2h-3.8c-.3 0-.3.1-.3.3v7.1c0 .1 0 .3.2.3h4.6c.9 0 1.2-.3 1.3-1.1h.5v4.1h-.5c-.1-.9-.1-1.8-1.5-1.9-.8-.1-4-.1-4.4-.1-.1 0-.2.1-.2.2v7.5c.1 1.4.1 1.4 3.4 1.4 1.1 0 3.4 0 4-.3.8-.4 1-1.1 1.1-2.2h.6zM295.9 6.3h-.5c-.2-1.5-.3-2.1-2.7-2.1H289v14.6c0 3.1.3 3.4 2.5 3.4v.5h-6.7v-.5c1.7 0 1.9-.8 1.9-2.8V4.2h-3.2c-2.6 0-3.2.1-3.2 2.1h-.5l-.1-3.3s2.6.2 3.8.2h8.9c1.5 0 2.8 0 3.6-.1l-.1 3.2z"/></svg>