<svg version="1.1" id="Capa_1" xmlns="http://www.w3.org/2000/svg" xmlns:xlink="http://www.w3.org/1999/xlink" x="0px" y="0px"
	 viewBox="0 0 246 246" xml:space="preserve" style="background: #000000;padding: 20px;width: 100vw;height: 100vh;box-sizing: border-box;">
	<g>
		<title>CSS King</title>
		<path id="svg_1" fill="#FFFFFF" d="m256.975,100.34c0.041,0.736 -0.013,1.485 -0.198,2.229l-16.5,66c-0.832,3.325 -3.812,5.663 -7.238,5.681l-99,0.5c-0.013,0 -0.025,0 -0.038,0l-99.001,0c-3.444,0 -6.445,-2.346 -7.277,-5.688l-16.5,-66.25c-0.19,-0.764 -0.245,-1.534 -0.197,-2.289c-6.383,-2.011 -11.026,-7.984 -11.026,-15.023c0,-8.685 7.065,-15.75 15.75,-15.75s15.75,7.065 15.75,15.75c0,4.891 -2.241,9.267 -5.75,12.158l20.658,20.814c5.221,5.261 12.466,8.277 19.878,8.277c8.764,0 17.12,-4.162 22.382,-11.135l33.95,-44.984c-2.852,-2.85 -4.618,-6.788 -4.618,-11.13c0,-8.685 7.065,-15.75 15.75,-15.75s15.75,7.065 15.75,15.75c0,4.212 -1.672,8.035 -4.375,10.864c0.009,0.012 0.02,0.022 0.029,0.035l33.704,45.108c5.26,7.04 13.646,11.243 22.435,11.243c7.48,0 14.514,-2.913 19.803,-8.203l20.788,-20.788c-3.583,-2.89 -5.884,-7.308 -5.884,-12.259c0,-8.685 7.065,-15.75 15.75,-15.75s15.75,7.065 15.75,15.75c0,6.851 -4.405,12.678 -10.525,14.84zm-18.308,97.91c0,-4.142 -3.358,-7.5 -7.5,-7.5l-194,0c-4.142,0 -7.5,3.358 -7.5,7.5l0,18c0,4.142 3.358,7.5 7.5,7.5l194,0c4.142,0 7.5,-3.358 7.5,-7.5l0,-18z"/>
		<rect stroke="#FFFFFF" id="svg_17" height="9" width="203.999995" y="177.75" x="32.250005" stroke-width="1.5" fill="#FFFFFF"/>
		<text font-style="normal" font-weight="bold" transform="matrix(2.7519467198875986,0,0,2.206761373657741,-193.86800507304304,-203.60508723765653) " xml:space="preserve" text-anchor="start" font-family="Helvetica, Arial, sans-serif" font-size="24" id="svg_18" y="183.665888" x="94.985196" stroke-width="0" fill="#000000">CSS</text>
	</g>
</svg>