<svg width="70" height="74" xmlns="http://www.w3.org/2000/svg">
 <!-- Created with Method Draw - http://github.com/duopixel/Method-Draw/ -->

 <g>
  <title>background</title>
  <rect id="canvas_background" height="76" width="72" y="-1" x="-1"/>
  <g display="none" overflow="visible" y="0" x="0" height="100%" width="100%" id="canvasGrid">
   <rect fill="url(#gridpattern)" stroke-width="0" y="0" x="0" height="100%" width="100%"/>
  </g>
 </g>
 <g>
  <title>Layer 1</title>
  <g id="svg_10">
   <path id="svg_9" d="m60.973954,69.930418c0,1.216795 -0.986479,2.203274 -2.203274,2.203274l-47.88449,0c-1.216795,0 -2.203274,-0.986479 -2.203274,-2.203274l0,-4.700318c0,-1.216795 0.986479,-2.203274 2.203274,-2.203274l47.88449,0c1.216795,0 2.203274,0.986479 2.203274,2.203274l0,4.700318zm7.484375,-32.996526c0,-9.806038 -7.977615,-17.783653 -17.783653,-17.783653c-1.196818,0 -2.364847,0.122502 -3.495568,0.350467c1.807566,3.956786 2.866019,8.870088 2.866019,14.236382c0,5.007601 -0.923906,9.607156 -2.516433,13.426165l-4.877461,0c1.839587,-3.525239 2.987346,-8.294886 2.987346,-13.426165c0,-10.629475 -4.915064,-19.615896 -10.733176,-19.615896c-5.817819,0 -10.732882,8.990239 -10.732882,19.619421c0,5.131278 1.147759,9.897401 2.987346,13.422639l-4.87658,0c-1.592526,-3.819008 -2.517314,-8.41827 -2.517314,-13.426165c0,-5.381277 1.064328,-10.300747 2.881001,-14.263409c-1.076667,-0.205639 -2.186235,-0.319915 -3.321656,-0.319915c-9.806038,0 -17.783653,7.975852 -17.783653,17.781891c0,5.472345 2.500275,10.372721 6.400952,13.637385c-0.097532,0.372206 -0.140716,0.759689 -0.140716,1.162154l0,1.369261c0,2.536115 2.035238,4.634514 4.571353,4.634514l45.064886,0c2.536115,0 4.417418,-2.098692 4.417418,-4.634514l0,-1.369261c0,-0.355755 0.046416,-0.700641 -0.030552,-1.033189c3.990276,-3.264077 6.633324,-8.223206 6.633324,-13.768113zm-33.458626,-37.067589c-2.551391,0 -4.626876,2.075484 -4.626876,4.626876s2.075484,4.626876 4.626876,4.626876s4.626876,-2.075484 4.626876,-4.626876s-2.075484,-4.626876 -4.626876,-4.626876z" fill="#FFFFFF"/>
   <rect transform="matrix(0.2937698750179294,0,0,0.2937698750179294,0,0) " fill="#FFFFFF" stroke-width="1.5" x="41.140865" y="200.54489" width="157" height="9" id="svg_7" stroke="#FFFFFF"/>
   <text fill="#000000" stroke-width="0" x="89.597671" y="194.093766" id="svg_6" font-size="24" font-family="Helvetica, Arial, sans-serif" text-anchor="start" xml:space="preserve" transform="matrix(0.8084390439573804,0,0,0.6482800129338286,-56.95257962028315,-59.81304103082097) " font-weight="bold" font-style="normal">CSS</text>
  </g>
 </g>
</svg>